#!OML:ASF I:\golf\golf\golf 2\Subject 1\2002-09-07\Subject1.ASF
:FULLY-SPECIFIED
:DEGREES
1
root 0.0760073 17.8812 -9.5604 8.04048 -0.854129 -5.67942
lowerback -9.10957 -0.13162 -1.10408
upperback -0.726616 -0.271949 4.50504
thorax 4.38694 -0.19785 5.3086
lowerneck -19.3856 -1.35718 -0.188084
upperneck 36.9509 -0.512419 -3.75451
head 16.5669 -0.795482 -1.72942
rclavicle -1.35422e-014 -4.77083e-015
rhumerus -29.4565 -0.847332 -83.9267
rradius 25.9671
rwrist -7.53066
rhand -19.6187 9.32755
rfingers 7.12502
rthumb 6.70796 -20.5462
lclavicle -1.35422e-014 -4.77083e-015
lhumerus -26.3018 -1.28404 89.7715
lradius 22.7619
lwrist -2.26606
lhand -32.9667 20.2188
lfingers 7.12502
lthumb -6.18208 50.1086
rfemur -15.393 2.72187 22.7918
rtibia 30.1667
rfoot -17.5972 -5.5846
rtoes 2.18143
lfemur -13.973 1.44167 -11.1548
ltibia 31.4228
lfoot -20.397 1.66964
ltoes -9.03644
2
root 0.0753784 17.8783 -9.56008 7.98496 -0.899701 -5.85502
lowerback -9.15917 -0.0675376 -0.899053
upperback -0.66553 -0.210432 4.51113
thorax 4.47174 -0.165614 5.20691
lowerneck -19.3446 -1.35877 -0.162514
upperneck 36.916 -0.52846 -3.74618
head 16.5378 -0.796706 -1.73134
rclavicle -1.61264e-014 8.34896e-015
rhumerus -29.3847 -1.00312 -83.9171
rradius 26.0235
rwrist -7.5583
rhand -19.4772 9.33163
rfingers 7.12502
rthumb 6.84448 -20.5377
lclavicle -1.61264e-014 8.34896e-015
lhumerus -26.191 -1.51992 89.8129
lradius 22.6871
lwrist -2.17317
lhand -28.4184 22.8385
lfingers 7.12502
lthumb -1.78997 52.8107
rfemur -15.3305 2.67094 22.9863
rtibia 30.1441
rfoot -17.4132 -5.26804
rtoes 3.27415
lfemur -13.973 1.61833 -10.9808
ltibia 31.4775
lfoot -20.3625 1.64798
ltoes -8.15371
3
root 0.0756724 17.8797 -9.56136 7.99017 -0.910846 -5.8969
lowerback -9.18448 -0.0375658 -0.824556
upperback -0.667158 -0.177846 4.49917
thorax 4.48073 -0.147908 5.156
lowerneck -19.3479 -1.34185 -0.0822711
upperneck 36.9957 -0.490976 -3.84637
head 16.5803 -0.78426 -1.78546
rclavicle 1.11816e-015 1.19271e-015
rhumerus -29.3409 -1.06426 -83.9146
rradius 26.0211
rwrist -7.59355
rhand -19.3805 9.30268
rfingers 7.12502
rthumb 6.93785 -20.5636
lclavicle 1.11816e-015 1.19271e-015
lhumerus -26.1816 -1.60611 89.8319
lradius 22.6823
lwrist -2.13001
lhand -23.4993 25.1329
lfingers 7.12502
lthumb 2.96089 55.0921
rfemur -15.306 2.67946 23.029
rtibia 30.0645
rfoot -17.3482 -5.23092
rtoes 3.45752
lfemur -14.0211 1.68493 -10.9434
ltibia 31.5426
lfoot -20.3958 1.70109
ltoes -8.60705
4
root 0.0765483 17.8801 -9.56307 7.99282 -0.910636 -5.98781
lowerback -9.18763 -0.0130575 -0.706228
upperback -0.671583 -0.158184 4.51927
thorax 4.47573 -0.135832 5.11209
lowerneck -19.3961 -1.33106 -0.0919527
upperneck 37.1287 -0.455995 -3.8715
head 16.6631 -0.774938 -1.79361
rclavicle 4.44781e-015 -3.4191e-014
rhumerus -29.3145 -1.03863 -83.9104
rradius 26.0636
rwrist -7.68167
rhand -19.4267 9.29327
rfingers 7.12502
rthumb 6.89323 -20.5745
lclavicle 4.44781e-015 -3.4191e-014
lhumerus -26.1864 -1.56211 89.844
lradius 22.6973
lwrist -2.21749
lhand -18.3617 27.1677
lfingers 7.12502
lthumb 7.92126 56.9993
rfemur -15.2731 2.69989 23.1227
rtibia 29.9817
rfoot -17.3068 -5.19779
rtoes 3.85932
lfemur -14.0568 1.66545 -10.8388
ltibia 31.6226
lfoot -20.4464 1.66258
ltoes -8.37021
5
root 0.0789564 17.8837 -9.56755 8.02943 -0.941395 -6.13497
lowerback -9.17549 0.0194895 -0.521066
upperback -0.686657 -0.13507 4.56134
thorax 4.45072 -0.120528 5.05333
lowerneck -19.4472 -1.32181 -0.116125
upperneck 37.2369 -0.416676 -3.90074
head 16.7343 -0.766694 -1.79945
rclavicle -5.29264e-015 2.18663e-014
rhumerus -29.2795 -1.03647 -83.8724
rradius 26.0499
rwrist -7.79282
rhand -19.5734 9.94405
rfingers 7.12502
rthumb 6.75164 -19.9283
lclavicle -5.29264e-015 2.18663e-014
lhumerus -26.1825 -1.4986 89.876
lradius 22.7351
lwrist -2.27001
lhand -7.89944 30.9683
lfingers 7.12502
lthumb 18.0056 60.1549
rfemur -15.303 2.73007 23.2635
rtibia 29.9283
rfoot -17.2411 -5.10487
rtoes 4.38271
lfemur -14.108 1.65669 -10.6858
ltibia 31.6746
lfoot -20.4766 1.61398
ltoes -7.74092
6
root 0.0831814 17.888 -9.5728 8.11479 -1.02998 -6.18388
lowerback -9.19196 0.0459972 -0.426463
upperback -0.722569 -0.109348 4.57923
thorax 4.41988 -0.105179 5.02117
lowerneck -19.4793 -1.32259 -0.139202
upperneck 37.2972 -0.368231 -3.99561
head 16.7763 -0.764436 -1.83112
rclavicle 1.25234e-014 6.52014e-014
rhumerus -29.2472 -1.00926 -83.827
rradius 25.9396
rwrist -7.89291
rhand -19.6697 10.9989
rfingers 7.12502
rthumb 6.65866 -18.8764
lclavicle 1.25234e-014 6.52014e-014
lhumerus -26.1813 -1.4758 89.9257
lradius 22.7182
lwrist -2.09523
lhand -8.03082 31.0908
lfingers 7.12502
lthumb 17.8792 60.289
rfemur -15.4268 2.69193 23.2788
rtibia 29.92
rfoot -17.1927 -4.95492
rtoes 4.47536
lfemur -14.1932 1.66006 -10.6712
ltibia 31.7002
lfoot -20.4779 1.64482
ltoes -7.30608
7
root 0.085385 17.8834 -9.57575 8.13961 -1.09498 -6.13338
lowerback -9.21783 0.0495637 -0.462855
upperback -0.731349 -0.100972 4.57641
thorax 4.42448 -0.101669 5.04034
lowerneck -19.4621 -1.31902 -0.171139
upperneck 37.364 -0.342883 -4.01058
head 16.8086 -0.760935 -1.82941
rclavicle 1.38155e-014 2.66371e-014
rhumerus -29.2078 -0.95542 -83.8086
rradius 25.9015
rwrist -7.90517
rhand -19.673 11.3821
rfingers 7.12502
rthumb 6.65553 -18.4934
lclavicle 1.38155e-014 2.66371e-014
lhumerus -26.179 -1.48444 89.9783
lradius 22.6706
lwrist -1.94227
lhand -8.17063 31.053
lfingers 7.12502
lthumb 17.7447 60.2634
rfemur -15.4939 2.55841 23.2012
rtibia 29.9375
rfoot -17.2327 -4.82106
rtoes 4.30223
lfemur -14.2358 1.71725 -10.7584
ltibia 31.7074
lfoot -20.4721 1.73499
ltoes -7.65663
8
root 0.0849203 17.8788 -9.57986 8.127 -1.06913 -6.09153
lowerback -9.18715 0.0370806 -0.513768
upperback -0.750184 -0.11099 4.57548
thorax 4.38859 -0.106842 5.06645
lowerneck -19.4163 -1.29637 -0.179486
upperneck 37.4069 -0.296544 -4.02868
head 16.8217 -0.745518 -1.82774
rclavicle -9.83984e-015 3.10104e-014
rhumerus -29.2049 -0.866206 -83.8265
rradius 25.9521
rwrist -7.99304
rhand -19.6651 11.2947
rfingers 7.12502
rthumb 6.66313 -18.5805
lclavicle -9.83984e-015 3.10104e-014
lhumerus -26.1916 -1.4735 90.0114
lradius 22.6788
lwrist -2.08006
lhand -7.93974 31.3371
lfingers 7.12502
lthumb 17.9668 60.5272
rfemur -15.5161 2.47657 23.1611
rtibia 29.9759
rfoot -17.1842 -4.7979
rtoes 4.30654
lfemur -14.2563 1.73901 -10.8053
ltibia 31.6856
lfoot -20.4518 1.79138
ltoes -8.07478
9
root 0.0844098 17.8811 -9.58342 8.11832 -1.0224 -6.07599
lowerback -9.14379 0.0264073 -0.53378
upperback -0.768879 -0.121609 4.57613
thorax 4.34577 -0.111612 5.0763
lowerneck -19.3949 -1.29954 -0.200729
upperneck 37.4622 -0.288578 -4.03606
head 16.8462 -0.746289 -1.82737
rclavicle -4.02539e-015 4.85035e-014
rhumerus -29.2282 -0.678209 -83.8779
rradius 26.0233
rwrist -8.26199
rhand -19.6912 11.3479
rfingers 7.12502
rthumb 6.63789 -18.528
lclavicle -4.02539e-015 4.85035e-014
lhumerus -26.1858 -1.4925 90.0498
lradius 22.6441
lwrist -2.12549
lhand -7.83155 31.2319
lfingers 7.12502
lthumb 18.0709 60.4124
rfemur -15.535 2.46516 23.1542
rtibia 30.0245
rfoot -17.1171 -4.86352
rtoes 4.32766
lfemur -14.2585 1.71267 -10.815
ltibia 31.6457
lfoot -20.3877 1.78959
ltoes -8.3397
10
root 0.0847645 17.8849 -9.58338 8.06051 -1.04277 -6.00789
lowerback -9.09281 0.0195045 -0.605484
upperback -0.747183 -0.122789 4.56478
thorax 4.34012 -0.113659 5.10474
lowerneck -19.4558 -1.28649 -0.213913
upperneck 37.555 -0.25954 -4.03689
head 16.9121 -0.736818 -1.82421
rclavicle 8.94531e-016 -1.90833e-014
rhumerus -29.207 -0.588153 -83.8949
rradius 26.0714
rwrist -8.37553
rhand -19.6824 11.4183
rfingers 7.12502
rthumb 6.64645 -18.4574
lclavicle 8.94531e-016 -1.90833e-014
lhumerus -26.1928 -1.52746 90.1045
lradius 22.6009
lwrist -1.89604
lhand -8.14647 30.6754
lfingers 7.12502
lthumb 17.7679 59.8837
rfemur -15.4829 2.45381 23.0724
rtibia 30.0481
rfoot -17.1393 -4.86778
rtoes 4.17115
lfemur -14.1614 1.70378 -10.89
ltibia 31.6249
lfoot -20.3805 1.71404
ltoes -8.02438
